{"title":"Star Wars Rebels S02E02 Relics of the Old Republic 1080P WEB-DL","uid":12616261,"size":963821971,"categoryP":"video","categoryS":"hd___tv_shows","magnet":"?xt=urn:btih:970c224c4f063b7fd17055214159bfc9bd1e6ba4&amp;dn=Star+Wars+Rebels+S02E02+Relics+of+the+Old+Republic+1080P+WEB-DL+&amp;tr=udp%3A%2F%2Ftracker.leechers-paradise.org%3A6969&amp;tr=udp%3A%2F%2Fzer0day.ch%3A1337&amp;tr=udp%3A%2F%2Fopen.demonii.com%3A1337&amp;tr=udp%3A%2F%2Ftracker.coppersurfer.tk%3A6969&amp;tr=udp%3A%2F%2Fexodus.desync.com%3A6969","seeders":2,"leechers":0,"uploader":"jmanwf","files":2,"time":1445520148,"description":"Ezra and the crew begin to develop friendships with Captain Rex and his colleagues, prompting them to work together against an attack by Agent Kallus.\r\n\r\n\r\n\r\nVideo\r\nID : 2\r\nFormat : AVC\r\nFormat/Info : Advanced Video Codec\r\nFormat profile :   \r\nFormat settings, CABAC : Yes\r\nFormat settings, ReFrames : 4 frames\r\nCodec ID : avc1\r\nCodec ID/Info : Advanced Video Coding\r\nDuration : 22mn 7s\r\nBit rate : 5 293 Kbps\r\nWidth : 1 920 pixels\r\nHeight : 1 080 pixels\r\nDisplay aspect ratio : 16:9\r\nFrame rate mode : Constant\r\nFrame rate : 23.976 fps\r\nColor space : YUV\r\nChroma subsampling : 4:2:0\r\nBit depth : 8 bits\r\nScan type : Progressive\r\nBits/(Pixel*Frame) : 0.106\r\nStream size : 837 MiB (91%)\r\nLanguage : English\r\nEncoded date : UTC 2015-10-22 08:28:16\r\nTagged date : UTC 2015-10-22 08:29:45\r\nColor range : Limited\r\nColor primaries : BT.709\r\nTransfer characteristics : BT.709\r\nMatrix coefficients : BT.709\r\n\r\nAudio #1\r\nID : 1\r\nFormat : AAC\r\nFormat/Info : Advanced Audio Codec\r\nFormat profile : LC\r\nCodec ID : 40\r\nDuration : 22mn 7s\r\nBit rate mode : Variable\r\nBit rate : 128 Kbps\r\nMaximum bit rate : 208 Kbps\r\nChannel(s) : 2 channels\r\nChannel positions : Front: L R\r\nSampling rate : 48.0 KHz\r\nCompression mode : Lossy\r\nStream size : 20.3 MiB (2%)\r\nLanguage : English\r\nEncoded date : UTC 2015-10-22 08:28:16\r\nTagged date : UTC 2015-10-22 08:29:45\r\n\r\nAudio #2\r\nID : 3\r\nFormat : AC-3\r\nFormat/Info : Audio Coding 3\r\nMode extension : CM (complete main)\r\nFormat settings, Endianness : Big\r\nCodec ID : ac-3\r\nDuration : 22mn 7s\r\nBit rate mode : Constant\r\nBit rate : 384 Kbps\r\nChannel(s) : 6 channels\r\nChannel positions : Front: L C R, Side: L R, LFE\r\nSampling rate : 48.0 KHz\r\nBit depth : 16 bits\r\nCompression mode : Lossy\r\nStream size : 60.8 MiB (7%)\r\nLanguage : English\r\nEncoded date : UTC 2015-10-22 08:28:16\r\nTagged date : UTC 2015-10-22 08:29:45\r\n\r\nText\r\nID : 4-CC1\r\nFormat : EIA-608\r\nMuxing mode : Final Cut\r\nCodec ID : c608\r\nDuration : 21mn 29s\r\nBit rate mode : Constant\r\nStream size : 0.00 Byte (0%)\r\nLanguage : English\r\nEncoded date : UTC 2015-10-22 08:28:16\r\nTagged date : UTC 2015-10-22 08:28:18\r\n\r\n\r\n\r\n\r\n \nhttps://itunes.apple.com/us/tv-show/id1042728340","torrent":{"xt":"urn:btih:970c224c4f063b7fd17055214159bfc9bd1e6ba4","amp;dn":"Star+Wars+Rebels+S02E02+Relics+of+the+Old+Republic+1080P+WEB-DL+","amp;tr":["udp%3A%2F%2Ftracker.leechers-paradise.org%3A6969","udp%3A%2F%2Fzer0day.ch%3A1337","udp%3A%2F%2Fopen.demonii.com%3A1337","udp%3A%2F%2Ftracker.coppersurfer.tk%3A6969","udp%3A%2F%2Fexodus.desync.com%3A6969"],"infoHash":"970c224c4f063b7fd17055214159bfc9bd1e6ba4","infoHashBuffer":{"type":"Buffer","data":[151,12,34,76,79,6,59,127,209,112,85,33,65,89,191,201,189,30,107,164]},"announce":[],"urlList":[]}}